# xmcd CD database file
#
# Track frame offsets:
#	150
#	16741
#	35910
#	55951
#	74703
#	91548
#	109830
#	124242
#	142837
#	157882
#	174021
#	189646
#	206675
#	220294
#	238484
#	255676
#	267701
#	283776
#	299624
#	317152
#
# Disc length: 4489 seconds
#
# Revision: 5
# Processed by: cddbd v1.5.2PL0 Copyright (c) Steve Scherf et al.
# Submitted via: CDex 1.82
#
DISCID=3b118714
DTITLE=Lionel Richie - The Definitive Collection 2
DYEAR=2003
DGENRE=Blues
TTITLE0=Commodores - Three Times A Lady
TTITLE1=Commodores - Easy
TTITLE2=Endless Love (Feat. Diana Ross)
TTITLE3=Hello
TTITLE4=Still
TTITLE5=Commodores - Sail On
TTITLE6=Commodores - Stuck On You
TTITLE7=You Are
TTITLE8=Truly
TTITLE9=Commodores - Just To Be Close To You
TTITLE10=Commodores - Sweet Love
TTITLE11=Penny Lover
TTITLE12=Oh No
TTITLE13=Commodores - Lady (You Bring Me Up)
TTITLE14=Commodores - Wonderland
TTITLE15=Commodores - Machine Gun
TTITLE16=Commodores - Brick House
TTITLE17=Commodores - Too Hot Ta Trot
TTITLE18=Commodores - Flying High
TTITLE19=Commodores - Zoom
EXTD=YEAR: 2003
EXTT0=
EXTT1=
EXTT2=
EXTT3=
EXTT4=
EXTT5=
EXTT6=
EXTT7=
EXTT8=
EXTT9=
EXTT10=
EXTT11=
EXTT12=
EXTT13=
EXTT14=
EXTT15=
EXTT16=
EXTT17=
EXTT18=
EXTT19=
PLAYORDER=
